<?xml version="1.0" standalone="no"?>
<!DOCTYPE svg PUBLIC "-//W3C//DTD SVG 20010904//EN"
 "http://www.w3.org/TR/2001/REC-SVG-20010904/DTD/svg10.dtd">
<svg version="1.0" xmlns="http://www.w3.org/2000/svg"
 width="512.000000pt" height="512.000000pt" viewBox="0 0 512.000000 512.000000"
 preserveAspectRatio="xMidYMid meet">

<g transform="translate(0.000000,512.000000) scale(0.100000,-0.100000)"
fill="#000000" stroke="none">
<path d="M1005 4840 c-179 -27 -331 -102 -466 -228 -122 -114 -201 -251 -245
-422 -18 -72 -19 -131 -19 -1635 0 -1468 1 -1564 18 -1625 75 -272 236 -467
479 -579 177 -82 38 -76 1793 -76 1464 0 1564 1 1625 18 157 43 279 108 382
205 119 112 194 234 245 399 l28 88 0 1565 c0 1760 6 1621 -76 1798 -112 242
-293 395 -564 475 -70 21 -79 21 -1610 23 -847 1 -1562 -2 -1590 -6z m2206
-347 c99 -103 144 -169 205 -298 55 -115 91 -255 100 -379 6 -88 6 -94 -15
-108 -26 -18 -58 -13 -70 11 -5 9 -11 57 -14 106 -8 119 -37 230 -92 343 -57
119 -92 169 -187 268 -43 45 -78 87 -78 93 0 26 22 51 44 51 16 0 49 -27 107
-87z m-552 -46 c122 -44 199 -93 292 -187 71 -71 94 -103 133 -181 64 -132 81
-200 80 -339 0 -134 -17 -207 -74 -325 -71 -147 -195 -270 -345 -341 -111 -53
-184 -69 -320 -68 -137 0 -208 15 -322 70 -409 195 -544 726 -279 1097 102
143 243 240 418 287 109 30 314 23 417 -13z m-1240 -671 c6 -7 16 -61 21 -119
31 -328 208 -607 486 -770 79 -47 90 -60 76 -92 -16 -36 -56 -32 -128 11 -239
144 -403 352 -487 619 -42 133 -61 327 -35 353 16 16 53 15 67 -2z m2207 -796
c213 -250 391 -457 396 -458 17 -7 66 -89 81 -137 9 -27 23 -112 31 -187 18
-159 37 -214 100 -298 51 -68 71 -125 60 -173 -13 -62 -282 -301 -503 -448
-338 -225 -681 -343 -1036 -356 -159 -6 -363 13 -405 37 -8 5 -10 10 -4 10 17
0 141 97 148 116 8 22 -19 64 -42 64 -9 0 -50 -25 -90 -55 -289 -218 -681
-230 -980 -31 -87 58 -221 196 -251 261 -132 279 0 555 342 715 213 100 488
117 721 43 117 -37 184 -73 283 -156 48 -40 97 -78 107 -84 45 -25 85 20 60
68 -12 24 -89 95 -142 131 l-23 16 33 25 c86 65 213 107 323 107 78 0 158 -21
245 -65 82 -41 95 -43 115 -11 21 32 11 52 -41 82 -24 14 -44 28 -44 30 0 3
11 27 25 54 91 180 23 638 -120 808 l-27 32 57 62 c59 65 137 188 156 246 9
28 13 32 24 21 7 -8 187 -219 401 -469z"/>
<path d="M2337 4016 c-155 -58 -233 -217 -181 -369 22 -64 91 -139 155 -166
79 -34 163 -31 243 8 68 33 104 72 138 148 17 38 20 61 16 122 -5 82 -20 120
-70 177 -67 76 -209 114 -301 80z"/>
</g>
</svg>
